<svg width="72" height="26" viewBox="0 0 72 26" fill="none" xmlns="http://www.w3.org/2000/svg">
<g clip-path="url(#clip0_187_3700)">
<path d="M39.0611 9.92126C39.0611 10.0751 38.892 10.1593 38.7782 10.0604C38.5435 9.84802 38.2847 9.65758 37.9983 9.50376C37.322 9.14119 36.5629 8.95808 35.7141 8.95808C34.6064 8.95808 33.6265 9.24374 32.7742 9.81506C31.9185 10.3827 31.2456 11.1628 30.7487 12.1479C30.2519 13.1331 30.0034 14.2501 30.0034 15.4916C30.0034 16.7331 30.2519 17.8245 30.7487 18.8097C31.2456 19.7948 31.9254 20.5712 32.788 21.1426C33.6506 21.7139 34.6272 21.9995 35.7175 21.9995C36.5629 21.9995 37.3289 21.8091 38.0156 21.4282C38.3089 21.2671 38.5677 21.0693 38.8058 20.8496C38.9162 20.747 39.0887 20.8313 39.0887 20.9851V21.3696C39.0887 21.571 39.244 21.7358 39.4338 21.7358H41.9182C42.1079 21.7358 42.2632 21.571 42.2632 21.3696V3.36574C42.2632 3.16432 42.1079 2.99951 41.9182 2.99951H39.4096C39.2198 2.99951 39.0646 3.16432 39.0646 3.36574V9.92126H39.0611ZM38.8782 17.2385C38.6263 17.7476 38.2778 18.1468 37.8258 18.4325C37.3772 18.7181 36.8528 18.8573 36.2524 18.8573C35.683 18.8573 35.1689 18.7144 34.7134 18.4325C34.2579 18.1468 33.9025 17.7476 33.6506 17.2385C33.3988 16.7295 33.2745 16.1362 33.2745 15.466C33.2745 14.7958 33.3988 14.2318 33.6506 13.7301C33.9025 13.2283 34.251 12.8328 34.7031 12.5361C35.1516 12.2432 35.6761 12.0967 36.2765 12.0967C36.8769 12.0967 37.3807 12.2395 37.8258 12.5215C38.2744 12.8072 38.6263 13.2063 38.8782 13.7154C39.1301 14.2245 39.2543 14.8068 39.2543 15.4623C39.2543 16.1179 39.1301 16.7295 38.8782 17.2349V17.2385Z" fill="white"/>
<path d="M46.9146 9.22168H44.3819C44.1914 9.22168 44.0369 9.38565 44.0369 9.58791V21.3695C44.0369 21.5718 44.1914 21.7358 44.3819 21.7358H46.9146C47.1052 21.7358 47.2597 21.5718 47.2597 21.3695V9.58791C47.2597 9.38565 47.1052 9.22168 46.9146 9.22168Z" fill="white"/>
<path d="M45.6482 3.31055C45.1271 3.31055 44.6958 3.50099 44.3542 3.8782C44.0126 4.25542 43.8401 4.71687 43.8401 5.25157C43.8401 5.78626 44.0126 6.26236 44.3542 6.63592C44.6958 7.00947 45.1271 7.19625 45.6482 7.19625C46.1692 7.19625 46.6212 7.00947 46.9525 6.63592C47.2872 6.26602 47.4528 5.80457 47.4528 5.25157C47.4528 4.69856 47.2872 4.25542 46.9525 3.8782C46.6178 3.50099 46.183 3.31055 45.6482 3.31055Z" fill="white"/>
<path d="M56.7521 18.5388C56.3173 18.7366 55.8377 18.8355 55.296 18.8355C54.7094 18.8355 54.1849 18.6927 53.7225 18.4107C53.2567 18.125 52.8909 17.7258 52.6252 17.2167C52.3596 16.7077 52.2215 16.1254 52.2215 15.4698C52.2215 14.8143 52.3561 14.2137 52.6252 13.7229C52.8944 13.2285 53.2601 12.8403 53.7225 12.5546C54.1849 12.269 54.7094 12.1298 55.296 12.1298C55.817 12.1298 56.2932 12.225 56.7245 12.4155C57.0557 12.562 57.3525 12.7561 57.6113 13.0051C57.7459 13.1333 57.9529 13.1223 58.0771 12.9831L59.6506 11.2948C59.7817 11.1556 59.7886 10.9249 59.654 10.7857C59.133 10.2364 58.536 9.80424 57.8563 9.48562C57.073 9.12306 56.2173 8.93994 55.2925 8.93994C54.1055 8.93994 53.0255 9.22926 52.0559 9.80791C51.0898 10.3866 50.3272 11.1666 49.7716 12.1518C49.2196 13.1369 48.9401 14.2539 48.9401 15.4955C48.9401 16.737 49.2196 17.8283 49.7716 18.8135C50.3272 19.7987 51.0829 20.5751 52.0421 21.1464C53.0014 21.7141 54.0848 22.0034 55.2891 22.0034C56.2173 22.0034 57.073 21.8203 57.8528 21.4577C58.5326 21.1427 59.1468 20.6996 59.6885 20.1356C59.8231 19.9964 59.8196 19.762 59.6885 19.6192L58.1013 17.9346C57.9736 17.799 57.7631 17.7881 57.6285 17.9199C57.3697 18.1799 57.073 18.385 56.7417 18.5388H56.7521Z" fill="white"/>
<path d="M71.2548 11.9794C70.7579 11.0382 70.0747 10.2947 69.2052 9.75273C68.3356 9.20705 67.3281 8.93604 66.1894 8.93604C65.0507 8.93604 63.981 9.22536 63.0391 9.804C62.0971 10.3826 61.3517 11.1591 60.8065 12.1369C60.2614 13.1111 59.9888 14.2244 59.9888 15.4659C59.9888 16.7074 60.2717 17.8501 60.8307 18.8352C61.3931 19.8204 62.1557 20.5931 63.115 21.1535C64.0777 21.7138 65.1749 21.9958 66.4102 21.9958C67.3695 21.9958 68.2632 21.8127 69.0844 21.4501C69.8021 21.1315 70.4267 20.6847 70.9512 20.1024C71.0788 19.9596 71.0685 19.7325 70.9408 19.597L69.5399 18.1101C69.4088 17.9709 69.1983 17.9636 69.0637 18.0991C68.7566 18.4067 68.4116 18.6485 68.0216 18.8169C67.5317 19.033 66.9899 19.1429 66.3861 19.1429C65.7167 19.1429 65.1335 18.9927 64.6263 18.6887C64.1225 18.3884 63.7361 17.9563 63.4669 17.3923C63.4324 17.319 63.4014 17.2458 63.3738 17.1689C63.2875 16.9308 63.4566 16.6745 63.6981 16.6745L71.5515 16.6525C71.7172 16.6525 71.8586 16.5243 71.8897 16.3522C71.9208 16.1801 71.9449 16.0153 71.9622 15.8651C71.9863 15.6271 71.9967 15.4 71.9967 15.1766C71.9967 13.9827 71.7482 12.917 71.2514 11.9757L71.2548 11.9794ZM63.6981 14.1365C63.46 14.1365 63.2875 13.8838 63.3703 13.6494C63.391 13.5908 63.4117 13.5359 63.4393 13.481C63.6912 12.9353 64.0535 12.5141 64.5262 12.2101C64.999 11.9098 65.551 11.7597 66.1859 11.7597C66.7863 11.7597 67.297 11.8915 67.7111 12.1589C68.1252 12.4262 68.4426 12.8144 68.6634 13.3125C68.7083 13.415 68.7497 13.5249 68.7877 13.6421C68.8636 13.8765 68.6945 14.1219 68.4599 14.1219L63.6981 14.1365Z" fill="white"/>
</g>
<path d="M22.0323 5.0859L13.9685 0.517511C12.7506 -0.172504 11.2499 -0.172504 10.032 0.517511L1.96822 5.0859C0.750384 5.77592 0 7.05117 0 8.4312V17.5685C0 18.9485 0.750384 20.2237 1.96822 20.9138L10.032 25.4822C11.2499 26.1722 12.7506 26.1722 13.9685 25.4822L16.0002 24.331V19.0649C16.0002 18.5472 16.2816 17.3565 16.7382 17.0982L19.1144 15.7519C19.508 15.5288 20.0001 15.8075 20.0001 16.2536V22.0649L22.0318 20.9138C23.2496 20.2237 24 18.9485 24 17.5685V8.4312C24 7.05117 23.2496 5.77592 22.0318 5.0859H22.0323Z" fill="white"/>
<path d="M12.2433 3.13885L13.0507 4.38461C13.407 4.93425 13.9712 5.32057 14.6173 5.45676L16.6318 5.88214C16.9359 5.94616 16.9359 6.37535 16.6318 6.43937L14.6173 6.86476C13.9712 7.00095 13.407 7.38726 13.0507 7.9369L12.2433 9.18267C12.1296 9.35738 11.8711 9.35738 11.7575 9.18267L10.95 7.9369C10.5938 7.38726 10.0295 7.00095 9.38344 6.86476L7.36894 6.43937C7.06485 6.37535 7.06485 5.94616 7.36894 5.88214L9.38344 5.45676C10.0295 5.32057 10.5938 4.93425 10.95 4.38461L11.7575 3.13885C11.8711 2.96413 12.1296 2.96413 12.2433 3.13885Z" fill="black"/>
<path d="M2.42335 19.2065L9.33072 23.1077C9.72382 23.3298 10.2152 23.0524 10.2152 22.6083V14.8323C10.2152 14.317 9.93413 13.8411 9.47813 13.5834L2.57077 9.6822C2.17766 9.46012 1.68628 9.73748 1.68628 10.1816V17.9577C1.68628 18.473 1.96735 18.9488 2.42335 19.2065Z" fill="black"/>
<path fill-rule="evenodd" clip-rule="evenodd" d="M19.1328 15.7942L16.7173 17.1368C16.2532 17.395 15.967 18.5826 15.967 19.0983V24.3505L20.0332 22.0904V16.295C20.0332 15.85 19.533 15.5722 19.1328 15.7947V15.7942Z" fill="black"/>
<path d="M6.13927 14.1782L6.44786 15.2934C6.57696 15.7596 6.85212 16.2253 7.20082 16.5674L8.03556 17.3862C8.16466 17.5133 8.16466 17.7193 8.03556 17.7002L7.20082 17.5781C6.85212 17.5269 6.57696 17.6821 6.44786 18.0026L6.13927 18.7697C6.09144 18.8888 5.90835 18.7853 5.86051 18.6125L5.55192 17.4972C5.42283 17.031 5.14767 16.5654 4.79896 16.2232L3.96474 15.4049C3.83565 15.2778 3.83565 15.0718 3.96474 15.0909L4.79948 15.213C5.14818 15.2642 5.42334 15.109 5.55244 14.7885L5.86103 14.0214C5.90886 13.9024 6.09196 14.0058 6.13979 14.1787L6.13927 14.1782Z" fill="white"/>
<defs>
<clipPath id="clip0_187_3700">
<rect width="42" height="19" fill="white" transform="translate(30 2.99951)"/>
</clipPath>
</defs>
</svg>
