<svg width="25" height="24" viewBox="0 0 25 24" fill="none" xmlns="http://www.w3.org/2000/svg">
<g clip-path="url(#clip0_543_2194)">
<path d="M5.5 20C5.5 20.5523 5.94772 21 6.5 21C7.05228 21 7.5 20.5523 7.5 20H5.5ZM7.5 20V14H5.5V20H7.5Z" fill="#CCCCCC"/>
<path d="M3.5 10.3028L5.03518 8H8.19722C8.59207 8 8.97809 7.88312 9.30662 7.6641L13.5 4.86852V17.1315L9.30662 14.3359C8.97809 14.1169 8.59208 14 8.19722 14H5.03518L3.5 11.6972L3.5 10.3028Z" stroke="#CCCCCC" stroke-width="2" stroke-linejoin="round"/>
<path d="M17.5 6L19.5 4" stroke="#CCCCCC" stroke-width="2" stroke-linecap="round" stroke-linejoin="round"/>
<path d="M17.5 16L19.5 18" stroke="#CCCCCC" stroke-width="2" stroke-linecap="round" stroke-linejoin="round"/>
<path d="M21.5 11H18.5" stroke="#CCCCCC" stroke-width="2" stroke-linecap="round" stroke-linejoin="round"/>
</g>
<defs>
<clipPath id="clip0_543_2194">
<rect width="24" height="24" fill="white" transform="translate(0.5)"/>
</clipPath>
</defs>
</svg>
