<svg width="16" height="16" viewBox="0 0 16 16" fill="none" xmlns="http://www.w3.org/2000/svg">
<g clip-path="url(#clip0_379_2977)">
<path d="M14.6667 7.99967C14.6667 11.6816 11.6819 14.6663 8.00004 14.6663M14.6667 7.99967C14.6667 4.31778 11.6819 1.33301 8.00004 1.33301M14.6667 7.99967H1.33337M8.00004 14.6663C4.31814 14.6663 1.33337 11.6816 1.33337 7.99967M8.00004 14.6663C9.66756 12.8408 10.6152 10.4717 10.6667 7.99967C10.6152 5.5277 9.66756 3.15858 8.00004 1.33301M8.00004 14.6663C6.33252 12.8408 5.38487 10.4717 5.33337 7.99967C5.38487 5.5277 6.33252 3.15858 8.00004 1.33301M1.33337 7.99967C1.33337 4.31778 4.31814 1.33301 8.00004 1.33301" stroke="#CCCCCC" stroke-width="1.33333" stroke-linecap="round" stroke-linejoin="round"/>
</g>
<defs>
<clipPath id="clip0_379_2977">
<rect width="16" height="16" fill="white"/>
</clipPath>
</defs>
</svg>
