<svg width="32" height="32" viewBox="0 0 32 32" fill="none" xmlns="http://www.w3.org/2000/svg">
<ellipse cx="16" cy="30" rx="5" ry="2" fill="black" fill-opacity="0.2"/>
<path d="M16.9922 2.46617C16.3774 2.11482 15.6225 2.11482 15.0077 2.46617L7.00768 7.0376C6.38453 7.39369 5.99996 8.05638 5.99996 8.77409V18.1886C5.99996 18.6525 6.16121 19.102 6.4561 19.4601L14.4561 29.1743C15.2561 30.1458 16.7438 30.1458 17.5438 29.1743L25.5438 19.4601C25.8387 19.102 26 18.6525 26 18.1886V8.77409C26 8.05638 25.6154 7.39369 24.9922 7.0376L16.9922 2.46617Z" fill="black" stroke="white" stroke-width="1.33333" stroke-linejoin="round"/>
<path d="M15.3383 9.71199C15.7482 9.47776 16.2514 9.47776 16.6613 9.712L18.828 10.9501C19.2434 11.1875 19.4998 11.6293 19.4998 12.1077V14.5602C19.4998 15.0387 19.2434 15.4805 18.828 15.7179L16.6613 16.956C16.2514 17.1902 15.7482 17.1902 15.3383 16.956L13.1716 15.7179C12.7562 15.4805 12.4998 15.0387 12.4998 14.5602V12.1077C12.4998 11.6293 12.7562 11.1875 13.1716 10.9501L15.3383 9.71199Z" fill="white"/>
</svg>
