<svg width="24" height="24" viewBox="0 0 24 24" fill="none" xmlns="http://www.w3.org/2000/svg">
<path d="M16.3137 3.29289C16.1262 3.10536 15.8718 3 15.6066 3H9.3934C9.12818 3 8.87383 3.10536 8.68629 3.29289L4.29289 7.68629C4.10536 7.87383 4 8.12818 4 8.3934V14.6066C4 14.8718 4.10536 15.1262 4.29289 15.3137L4.64068 15.6615C4.74956 15.7704 4.78627 15.9321 4.73509 16.0773L3.34716 20.0151C3.20755 20.4111 3.58886 20.7924 3.98493 20.6528L7.9227 19.2649C8.06792 19.2137 8.22963 19.2504 8.33851 19.3593L8.68629 19.7071C8.87383 19.8946 9.12818 20 9.3934 20H15.6066C15.8718 20 16.1262 19.8946 16.3137 19.7071L20.7071 15.3137C20.8946 15.1262 21 14.8718 21 14.6066V8.3934C21 8.12818 20.8946 7.87383 20.7071 7.68629L16.3137 3.29289Z" fill="white"/>
</svg>
