<svg width="25" height="24" viewBox="0 0 25 24" fill="none" xmlns="http://www.w3.org/2000/svg">
<rect x="6.5" y="2" width="2" height="3" rx="0.5" fill="white"/>
<rect x="16.5" y="2" width="2" height="3" rx="0.5" fill="white"/>
<path fill-rule="evenodd" clip-rule="evenodd" d="M4.91421 4C4.649 4 4.39464 4.10536 4.20711 4.29289L2.79289 5.70711C2.60536 5.89464 2.5 6.149 2.5 6.41421V17.5858C2.5 17.851 2.60536 18.1054 2.79289 18.2929L4.20711 19.7071C4.39464 19.8946 4.649 20 4.91421 20H20.0858C20.351 20 20.6054 19.8946 20.7929 19.7071L22.2071 18.2929C22.3946 18.1054 22.5 17.851 22.5 17.5858V6.41421C22.5 6.149 22.3946 5.89464 22.2071 5.70711L20.7929 4.29289C20.6054 4.10536 20.351 4 20.0858 4H4.91421ZM12.5 18C15.8137 18 18.5 15.3137 18.5 12C18.5 8.68629 15.8137 6 12.5 6C9.18629 6 6.5 8.68629 6.5 12C6.5 15.3137 9.18629 18 12.5 18Z" fill="white"/>
<path d="M9.5 12L11.6 14L15.5 10" stroke="white" stroke-width="1.4" stroke-linecap="round" stroke-linejoin="round"/>
</svg>
