<svg width="24" height="25" viewBox="0 0 24 25" fill="none" xmlns="http://www.w3.org/2000/svg">
<path fill-rule="evenodd" clip-rule="evenodd" d="M13.5787 20.7929L11.8124 19.0266C11.665 18.8792 11.5674 18.6895 11.5331 18.4839L10.9622 15.0585C10.9146 14.7728 10.9932 14.4805 11.1776 14.2572L16.2483 8.11902C16.4028 7.93208 16.1537 7.68302 15.9668 7.83745L9.82855 12.9081C9.60526 13.0926 9.31296 13.1712 9.02727 13.1236L5.60189 12.5527C5.3963 12.5184 5.20656 12.4208 5.05918 12.2734L3.29289 10.5071C2.90237 10.1166 2.90237 9.48342 3.29289 9.09289L5.09586 7.28992C5.22027 7.16551 5.37531 7.07613 5.54531 7.03079L18.6592 3.53376C18.7432 3.51135 18.8298 3.5 18.9168 3.5H19.5858C20.1381 3.5 20.5858 3.94772 20.5858 4.5V5.16896C20.5858 5.25595 20.5744 5.34257 20.552 5.42662L17.055 18.5405C17.0097 18.7105 16.9203 18.8655 16.7959 18.9899L14.9929 20.7929C14.6024 21.1834 13.9692 21.1834 13.5787 20.7929Z" fill="black"/>
</svg>
