<svg width="1024" height="1024" viewBox="0 0 1024 1024" fill="none" xmlns="http://www.w3.org/2000/svg">
<path d="M0 192C0 85.9613 85.9613 0 192 0H832C938.039 0 1024 85.9613 1024 192V832C1024 938.039 938.039 1024 832 1024H192C85.9613 1024 0 938.039 0 832V192Z" fill="black"/>
<path d="M0 192C0 85.9613 85.9613 0 192 0H832C938.039 0 1024 85.9613 1024 192V832C1024 938.039 938.039 1024 832 1024H192C85.9613 1024 0 938.039 0 832V192Z" fill="black"/>
<path d="M784.75 618.181V406.264C784.75 374.257 767.679 344.681 739.973 328.678L556.537 222.725C528.832 206.721 494.69 206.721 466.985 222.725L283.537 328.678C255.832 344.681 238.761 374.257 238.761 406.264V618.181C238.761 650.188 255.832 679.764 283.537 695.767L466.985 801.72C494.69 817.724 528.832 817.724 556.537 801.72L739.985 695.767C767.69 679.764 784.761 650.188 784.761 618.181H784.75Z" fill="white"/>
<path d="M381.574 355.096L393.798 388.155C398.914 401.975 409.806 412.872 423.619 417.989L456.664 430.219C461.78 432.111 461.78 439.357 456.664 441.25L423.619 453.479C409.806 458.597 398.914 469.493 393.798 483.313L381.574 516.372C379.683 521.49 372.44 521.49 370.548 516.372L358.324 483.313C353.209 469.493 342.317 458.597 328.503 453.479L295.459 441.25C290.343 439.357 290.343 432.111 295.459 430.219L328.503 417.989C342.317 412.872 353.209 401.975 358.324 388.155L370.548 355.096C372.44 349.978 379.683 349.978 381.574 355.096Z" fill="black"/>
<path d="M545.343 267.979L706.402 361.009C727.179 373.014 739.984 395.199 739.984 419.199V605.246C739.984 629.257 727.179 651.431 706.402 663.436L545.343 756.466C524.567 768.471 498.955 768.471 478.179 756.466L317.119 663.436C302.197 654.813 302.197 633.266 317.119 624.643L478.179 531.613C498.955 519.608 511.761 497.423 511.761 473.424V287.376C511.761 270.13 530.421 259.356 545.343 267.979Z" fill="black"/>
</svg>
