<svg width="30" height="32" viewBox="0 0 30 32" fill="none" xmlns="http://www.w3.org/2000/svg">
<g filter="url(#filter0_d_823_8452)">
<path d="M13 5.1547C14.2376 4.44017 15.7624 4.44017 17 5.1547L23.3923 8.8453C24.6299 9.55983 25.3923 10.8803 25.3923 12.3094V19.6906C25.3923 21.1197 24.6299 22.4402 23.3923 23.1547L17 26.8453C15.7624 27.5598 14.2376 27.5598 13 26.8453L6.6077 23.1547C5.37009 22.4402 4.6077 21.1197 4.6077 19.6906V12.3094C4.6077 10.8803 5.37009 9.55983 6.6077 8.8453L13 5.1547Z" fill="white"/>
<path d="M13.75 6.45374C14.5235 6.00716 15.4765 6.00716 16.25 6.45374L22.6423 10.1443C23.4158 10.5909 23.8923 11.4162 23.8923 12.3094V19.6906C23.8923 20.5838 23.4158 21.4091 22.6423 21.8557L16.25 25.5463C15.4765 25.9928 14.5235 25.9928 13.75 25.5463L7.3577 21.8557C6.58419 21.4091 6.1077 20.5838 6.1077 19.6906V12.3094C6.1077 11.4162 6.58419 10.5909 7.3577 10.1443L13.75 6.45374Z" stroke="black" stroke-width="3"/>
</g>
<defs>
<filter id="filter0_d_823_8452" x="0.607666" y="0.619141" width="28.7847" height="30.7617" filterUnits="userSpaceOnUse" color-interpolation-filters="sRGB">
<feFlood flood-opacity="0" result="BackgroundImageFix"/>
<feColorMatrix in="SourceAlpha" type="matrix" values="0 0 0 0 0 0 0 0 0 0 0 0 0 0 0 0 0 0 127 0" result="hardAlpha"/>
<feOffset/>
<feGaussianBlur stdDeviation="2"/>
<feComposite in2="hardAlpha" operator="out"/>
<feColorMatrix type="matrix" values="0 0 0 0 0 0 0 0 0 0 0 0 0 0 0 0 0 0 0.08 0"/>
<feBlend mode="normal" in2="BackgroundImageFix" result="effect1_dropShadow_823_8452"/>
<feBlend mode="normal" in="SourceGraphic" in2="effect1_dropShadow_823_8452" result="shape"/>
</filter>
</defs>
</svg>
