<svg width="54" height="54" viewBox="0 0 54 54" fill="none" xmlns="http://www.w3.org/2000/svg">
<g clip-path="url(#clip0_641_4598)">
<path d="M49.999 36.3131V36.4294C49.9584 38.8406 48.6562 41.058 46.5635 42.2665L30.4363 51.5791L30.4363 51.5791C28.3101 52.807 25.6899 52.807 23.5637 51.5791L23.5637 51.5791L7.43646 42.2665C7.43645 42.2665 7.43644 42.2665 7.43642 42.2665C5.31019 41.0385 4 38.7691 4 36.3131V17.6869C4 15.2309 5.31019 12.9615 7.43642 11.7335C7.43644 11.7335 7.43645 11.7335 7.43646 11.7335L23.5637 2.42093L23.5637 2.42091C25.6899 1.19303 28.3101 1.19303 30.4363 2.42091L30.4363 2.42092L46.5626 11.7335C48.6888 12.9615 49.999 15.2309 49.999 17.6869V36.3131Z" fill="#F4F4F4" stroke="#EEEEEE" stroke-width="2"/>
<mask id="mask0_641_4598" style="mask-type:alpha" maskUnits="userSpaceOnUse" x="3" y="-2" width="48" height="54">
<path d="M30.4363 0.420908L30.4363 0.420917L46.5626 9.73352C48.6888 10.9615 49.999 13.2309 49.999 15.6869V34.3131C49.999 36.7693 48.6896 39.0386 46.5636 40.2665C46.5636 40.2665 46.5636 40.2665 46.5635 40.2665L30.4363 49.5791L30.4363 49.5791C28.3101 50.807 25.6899 50.807 23.5637 49.5791L23.5637 49.5791L7.43646 40.2665C7.43645 40.2665 7.43644 40.2665 7.43642 40.2665C5.31019 39.0385 4 36.7691 4 34.3131V15.6869C4 13.2309 5.31019 10.9615 7.43642 9.73354C7.43644 9.73354 7.43645 9.73353 7.43646 9.73352L23.5637 0.420931L23.5637 0.420908C25.6899 -0.806969 28.3101 -0.806969 30.4363 0.420908Z" fill="white" stroke="#CCCCCC" stroke-width="2"/>
</mask>
<g mask="url(#mask0_641_4598)">
<path d="M26 8.04171C26.6188 7.68444 27.3812 7.68444 28 8.04171L33.918 11.4584C34.5368 11.8157 34.918 12.476 34.918 13.1905V20.0239C34.918 20.7385 34.5368 21.3987 33.918 21.756L28 25.1727C27.3812 25.53 26.6188 25.53 26 25.1727L20.0821 21.756C19.4633 21.3987 19.0821 20.7385 19.0821 20.0239V13.1905C19.0821 12.476 19.4633 11.8157 20.0821 11.4584L26 8.04171Z" fill="#CCCCCC"/>
<path d="M24.6365 29.0486C26.1458 28.4017 27.8542 28.4017 29.3635 29.0486L41.7878 34.3733C42.5232 34.6884 43 35.4115 43 36.2116V54.0356C43 55.1402 42.1046 56.0356 41 56.0356H27.0004H13C11.8954 56.0356 11 55.1402 11 54.0356V36.2116C11 35.4115 11.4768 34.6884 12.2122 34.3733L24.6365 29.0486Z" fill="#CCCCCC"/>
</g>
</g>
<defs>
<clipPath id="clip0_641_4598">
<rect width="54" height="54" fill="white"/>
</clipPath>
</defs>
</svg>
