<svg width="37" height="36" viewBox="0 0 37 36" fill="none" xmlns="http://www.w3.org/2000/svg">
<path d="M5 17.3156C5 17.7122 5.15704 18.0926 5.43679 18.3737L17.4368 30.4317C18.0232 31.0208 18.9768 31.0209 19.5632 30.4317L31.5632 18.3737C31.843 18.0926 32 17.7122 32 17.3156L32 12.2931C32 11.8965 31.843 11.5161 31.5632 11.235L28.2859 7.9419C28.0044 7.65903 27.6218 7.5 27.2227 7.5L22.2021 7.5C21.8249 7.5 21.4615 7.64212 21.1844 7.89805L18.5 10.3772L15.8156 7.89805C15.5385 7.64212 15.1751 7.5 14.7979 7.5L9.77728 7.5C9.37821 7.5 8.99558 7.65903 8.71407 7.9419L5.43679 11.235C5.15704 11.5161 5 11.8965 5 12.2931V17.3156Z" fill="black"/>
</svg>
