<svg width="37" height="36" viewBox="0 0 37 36" fill="none" xmlns="http://www.w3.org/2000/svg">
<path fill-rule="evenodd" clip-rule="evenodd" d="M20.868 30.4393L18.2186 27.7899C17.9975 27.5688 17.8511 27.2842 17.7997 26.9758L16.9433 21.8378C16.8719 21.4092 16.9898 20.9708 17.2665 20.6358L24.8725 11.4285C25.1041 11.1481 24.7306 10.7745 24.4501 11.0062L15.2428 18.6122C14.9079 18.8889 14.4694 19.0068 14.0409 18.9354L8.90284 18.079C8.59446 18.0276 8.30984 17.8812 8.08878 17.6601L5.43934 15.0107C4.85355 14.4249 4.85355 13.4751 5.43934 12.8893L8.1438 10.1849C8.33041 9.99827 8.56296 9.86419 8.81796 9.79619L28.4888 4.55065C28.6148 4.51703 28.7448 4.5 28.8752 4.5H29.8787C30.7071 4.5 31.3787 5.17157 31.3787 6V7.00343C31.3787 7.13392 31.3617 7.26385 31.328 7.38993L26.0825 27.0607C26.0145 27.3157 25.8804 27.5483 25.6938 27.7349L22.9893 30.4393C22.4036 31.0251 21.4538 31.0251 20.868 30.4393Z" fill="black"/>
</svg>
